<svg xmlns="http://www.w3.org/2000/svg" version="1.1" xmlns:xlink="http://www.w3.org/1999/xlink" width="434" height="360"><svg width="434" height="360" viewBox="0 0 434 360" fill="none" xmlns="http://www.w3.org/2000/svg">
<path d="M2.90445 335.426C2.49439 336.74 2.23063 337.708 1.83198 338.618C1.65326 339.026 1.20442 339.315 0 340.581C0.0341 330.747 3.32737 322.471 4.7713 313.538C2.81989 314.956 3.67617 317.521 1.33587 318.454C-0.0216292 316.595 1.00818 314.796 1.56652 313.029C7.39935 294.566 15.2453 276.939 23.9672 259.699C37.6803 232.593 53.7575 206.9 71.159 182.036C73.5059 178.683 73.1043 176.398 71.0718 173.154C54.0882 146.049 37.6101 118.634 21.5913 90.9469C19.7589 87.7796 18.1157 84.4921 16.5578 81.1791C13.6616 75.0202 15.0016 71.371 20.9534 67.5465C24.9646 64.969 27.6915 60.9063 32.6498 59.1817C37.8781 57.3632 43.1296 55.8139 48.5227 55.1343C55.8088 54.2163 61.2722 58.2652 65.9578 63.2757C72.8465 70.6421 77.4513 79.5928 82.6564 88.1083C90.2146 100.474 97.5997 112.945 105.101 125.345C106.123 127.035 107.038 128.869 108.902 129.937C110.626 130.024 111.62 128.759 112.552 127.672C119.272 119.829 127.171 112.656 132.3 103.871C139.777 91.0636 150.608 81.6222 160.582 71.2614C162.799 68.9579 164.609 64.9669 169.374 66.5891C170.077 66.8285 171.602 64.8386 172.667 63.7987C182.435 54.2635 191.807 44.2866 203.139 36.5003C204.616 35.4857 206.163 34.5735 207.405 33.7864C209.305 34.2668 207.744 35.7767 209.009 36.4836C215.221 32.5551 221.458 28.4139 227.895 24.6133C231.739 22.3441 235.21 18.7381 240.542 20.3345C241.503 20.6222 242.942 19.388 244.136 18.807C250.426 15.7474 256.486 10.7536 263.038 9.99608C277.271 8.35042 290.1 1.06 304.522 0.812438C308.008 0.752601 311.482 0.144309 314.969 0.032493C316.875 -0.028634 319.04 -0.22123 320.286 1.98691C319.821 4.59624 317.663 3.9496 315.997 4.26981C310.498 5.32689 304.386 4.45295 300.229 9.727C299.475 10.684 297.46 10.6378 296.034 11.0762C287.989 13.5492 279.491 15.0268 273.504 21.886C272.714 22.7919 271.094 22.9415 269.907 23.539C262.915 27.0585 256.097 30.2322 250.259 36.2404C243.659 43.0316 234.629 47.4563 226.679 52.9441C225.475 53.7755 224.398 54.7909 223.27 55.7145C224.185 57.1344 225.744 55.0899 226.502 57.0815C225.504 60.0054 222.543 61.4787 220.198 63.3682C213.306 68.9192 206.199 74.3924 200.814 81.3573C183.514 103.735 163.503 123.884 147.172 147.044C142.566 153.576 137.657 159.894 132.869 166.297C131.517 168.105 130.578 169.703 132.12 172.1C153.496 205.302 174.37 238.866 202.253 267.269C203.77 268.814 205.387 270.26 206.969 271.738C208.769 273.42 210.964 274.778 210.61 277.844C210.442 279.298 211.79 280.168 212.798 281.012C238.229 302.298 265.289 320.556 298.858 326.326C313.253 328.8 327.654 328.57 342.073 325.886C348.865 324.622 355.6 322.915 362.669 322.954C365.395 322.97 368.135 320.712 370.865 319.48C372.035 318.952 373.151 318.096 374.577 318.795C375.067 321.328 372.968 322.023 371.685 323.047C367.762 326.175 363.309 328.46 358.849 330.733C356.389 331.987 352.737 332.053 352.839 336.268C352.85 336.708 351.646 337.287 350.922 337.62C333.915 345.424 315.959 349.16 297.346 350.039C294.765 350.161 292.487 350.368 289.883 351.612C285.632 353.642 280.725 351.547 276.166 350.97C235.86 345.866 202.61 326.224 172.028 300.717C145.016 278.187 122.974 251.434 103.201 222.602C101.547 220.188 100.244 217.412 96.6559 215.459C73.994 248.135 52.5543 281.452 32.9518 316.021C31.7311 310.864 35.8056 307.174 36.4064 301.931C29.808 312.33 25.0554 322.896 20.5262 333.596C19.4786 336.071 19.7926 340.516 14.8038 339.444C14.5782 339.395 13.947 340.106 13.9033 340.506C13.1389 347.512 6.4002 351.407 4.82513 357.986C4.6388 358.764 4.25873 359.565 3.31171 359.804C1.01734 357.269 1.27273 349.127 3.90883 337.103C5.61031 329.342 7.30112 321.581 8.81039 313.735C6.87219 320.842 4.93399 327.949 2.90445 335.426Z" fill="#58E8FD"></path>
<path d="M379.166 102.118C378.677 100.712 378.334 99.6323 378.049 98.7367C379.266 96.9347 380.21 99.1697 381.605 98.3514C371.902 81.4484 359.314 69.0212 338.223 69.8841C338.339 68.3298 338.267 67.7725 338.401 67.7169C344.865 65.0467 351.245 61.5905 358.523 62.6501C366.695 63.84 374.034 67.5428 381.56 71.8559C382.847 67.2769 385.011 68.846 387.425 70.536C397.819 77.812 405.873 87.2546 412.901 98.0933C413.819 96.4441 411.855 95.0773 413.273 93.5721C415.611 94.0159 416.252 96.262 417.204 97.9986C430.315 121.922 435.126 147.638 433.05 174.65C430.752 204.561 420.322 231.395 400.919 254.402C375.854 284.121 344.534 300.678 304.825 300.48C279.782 300.356 256.59 294.692 235.916 280.591C216.845 267.583 204.243 249.383 196.859 227.61C184.067 189.892 190.807 154.044 208.098 119.52C216.998 101.75 229.181 86.3669 245.228 74.3476C259.239 63.8535 274.553 55.0053 292.438 57.3504C302.292 58.6425 313.681 61.4351 319.175 72.2652C321.039 75.9402 321.206 79.8515 318.315 83.5074C316.693 85.5583 315.311 86.542 312.489 85.7489C308.335 84.5815 304.616 86.7667 301.151 88.6431C287.027 96.2908 276.628 107.995 267.516 120.839C247.669 148.819 240.546 180.253 243.581 214.089C244.857 228.315 249.224 241.733 256.651 254.091C272.1 279.796 301.381 286.683 327.687 270.513C344.578 260.13 356.86 245.439 366.339 228.214C382.21 199.376 389.986 168.663 387.743 135.661C386.957 124.103 383.887 113.069 379.166 102.118Z" fill="#057AC3"></path>
</svg><style>@media (prefers-color-scheme: light) { :root { filter: none; } }
@media (prefers-color-scheme: dark) { :root { filter: none; } }
</style></svg>